# xmcd CD database file generated by freedbAccess_ocx
#
# Track frame offsets:
#       150
#       12936
#       25479
#       34839
#       46493
#       57777
#       71175
#       82561
#       95232
#       107049
#       119952
#
# Disc length: 1752 seconds
#
# Revision: 0
# Processed by: cddbd v1.5.1PL0 Copyright (c) Steve Scherf et al.
# Submitted via: CDnGo 1.95
#
DISCID=9706d60b
DTITLE=Gogi Grant - City Girl In The Country
DYEAR=2001
DGENRE=Country
TTITLE0=Lonely Street
TTITLE1=(It's No) Sin
TTITLE2=Seven Days
TTITLE3=Your Last Goodbye
TTITLE4=Here Comes Heartache Again
TTITLE5=Oh, How I Miss You Tonight
TTITLE6=Just One Time
TTITLE7=I Really Don't Want To Know
TTITLE8=The Image Of Your Face
TTITLE9=Two Kisses
TTITLE10=Dear Friend
EXTD=
EXTT0=
EXTT1=
EXTT2=
EXTT3=
EXTT4=
EXTT5=
EXTT6=
EXTT7=
EXTT8=
EXTT9=
EXTT10=
PLAYORDER=
